<svg width="129" height="48" viewBox="0 0 129 48" fill="none" xmlns="http://www.w3.org/2000/svg">
<path d="M30.3209 32.2837H27.1092V17.1127H30.3209V23.0923H36.8922V17.1127H40.1039V32.2837H36.8922V25.8603H30.3209V32.2837ZM48.4859 26.4731H55.2051L56.0503 29.0297H47.5562L48.4859 26.4731ZM55.9024 32.2837L51.8455 20.6202L47.7041 32.2837H44.4713L50.1763 17.1127H53.6838L59.3465 32.2837H55.9024ZM66.9419 32.2837H63.7302V17.1127H66.9419V32.2837ZM82.4685 32.2837L75.5169 21.6978V32.2837H72.5799V17.1127H76.0451L82.6587 27.1703V17.1127H85.6168V32.2837H82.4685ZM94.4627 30.4032C94.4627 30.9807 94.2796 31.4596 93.9133 31.84C93.5471 32.2062 93.0752 32.3893 92.4976 32.3893C91.9201 32.3893 91.4412 32.2062 91.0608 31.84C90.6946 31.4596 90.5114 30.9807 90.5114 30.4032C90.5114 29.8115 90.6946 29.3326 91.0608 28.9664C91.4412 28.586 91.9201 28.3959 92.4976 28.3959C93.0752 28.3959 93.5471 28.586 93.9133 28.9664C94.2796 29.3326 94.4627 29.8115 94.4627 30.4032ZM109.564 29.4946V32.2837H99.3583V17.1127H109.416V19.9018H102.57V23.0923H108.782V25.8603H102.57V29.4946H109.564ZM119.972 32.2837H114.584V17.1127H119.972C121.578 17.1127 122.958 17.4296 124.113 18.0635C125.268 18.6974 126.156 19.5778 126.776 20.7047C127.396 21.8316 127.705 23.1346 127.705 24.6137C127.705 26.0786 127.388 27.3957 126.755 28.5649C126.121 29.72 125.219 30.6285 124.05 31.2906C122.895 31.9527 121.536 32.2837 119.972 32.2837ZM117.796 19.8806V29.5157H119.803C120.817 29.5157 121.662 29.3256 122.339 28.9452C123.029 28.5649 123.543 28.0085 123.881 27.276C124.233 26.5435 124.409 25.6561 124.409 24.6137C124.409 23.5994 124.233 22.7402 123.881 22.0359C123.543 21.3315 123.029 20.7963 122.339 20.43C121.662 20.0638 120.817 19.8806 119.803 19.8806H117.796Z" fill="#225CF3"/>
<path d="M22.7957 21.0195H17.866C17.7759 20.3817 17.5921 19.8152 17.3145 19.32C17.0368 18.8172 16.6804 18.3895 16.2452 18.0369C15.81 17.6842 15.3073 17.4141 14.7371 17.2265C14.1743 17.0389 13.5628 16.9451 12.9025 16.9451C11.7094 16.9451 10.6702 17.2415 9.78482 17.8343C8.89942 18.4195 8.21286 19.2749 7.72513 20.4004C7.23741 21.5184 6.99355 22.8766 6.99355 24.4748C6.99355 26.118 7.23741 27.4987 7.72513 28.6167C8.22036 29.7347 8.91067 30.5788 9.79607 31.1491C10.6815 31.7193 11.7057 32.0044 12.8687 32.0044C13.5215 32.0044 14.1255 31.9182 14.6808 31.7456C15.2435 31.573 15.7425 31.3216 16.1777 30.9915C16.6129 30.6538 16.9731 30.2449 17.2582 29.7647C17.5508 29.2845 17.7534 28.7367 17.866 28.1214L22.7957 28.1439C22.6681 29.2019 22.3493 30.2224 21.839 31.2053C21.3363 32.1808 20.6572 33.0549 19.8018 33.8278C18.954 34.5931 17.941 35.2009 16.763 35.6511C15.5924 36.0938 14.2681 36.3151 12.7899 36.3151C10.734 36.3151 8.89566 35.8499 7.27493 34.9195C5.6617 33.9891 4.38612 32.6422 3.4482 30.8789C2.51778 29.1156 2.05257 26.9809 2.05257 24.4748C2.05257 21.9611 2.52528 19.8227 3.47071 18.0594C4.41614 16.2961 5.69922 14.953 7.31995 14.0301C8.94068 13.0996 10.764 12.6344 12.7899 12.6344C14.1255 12.6344 15.3636 12.822 16.5041 13.1972C17.6521 13.5724 18.6688 14.1201 19.5542 14.8404C20.4396 15.5533 21.16 16.4274 21.7152 17.4629C22.278 18.4983 22.6381 19.6839 22.7957 21.0195Z" fill="#225CF3"/>
<rect x="0.454346" y="10.9305" width="15.8472" height="27.6632" rx="1.3206" fill="#225CF3"/>
<path fill-rule="evenodd" clip-rule="evenodd" d="M16.3016 13.1328C15.2174 12.8005 14.0469 12.6344 12.79 12.6344C10.7641 12.6344 8.94073 13.0996 7.32 14.03C5.69926 14.9529 4.41618 16.2961 3.47075 18.0594C2.52533 19.8227 2.05261 21.9611 2.05261 24.4748C2.05261 26.9809 2.51782 29.1156 3.44824 30.8789C4.38617 32.6422 5.66174 33.9891 7.27497 34.9195C8.89571 35.8499 10.734 36.3151 12.79 36.3151C14.0771 36.3151 15.2477 36.1473 16.3016 35.8116V30.8918C16.261 30.9257 16.2197 30.9589 16.1778 30.9915C15.7426 31.3216 15.2436 31.573 14.6808 31.7455C14.1256 31.9181 13.5216 32.0044 12.8688 32.0044C11.7057 32.0044 10.6815 31.7193 9.79611 31.149C8.91071 30.5788 8.2204 29.7346 7.72518 28.6166C7.23746 27.4986 6.9936 26.118 6.9936 24.4748C6.9936 22.8765 7.23746 21.5184 7.72518 20.4004C8.2129 19.2749 8.89946 18.4195 9.78486 17.8343C10.6703 17.2415 11.7095 16.9451 12.9025 16.9451C13.5628 16.9451 14.1743 17.0389 14.7371 17.2265C15.3074 17.4141 15.8101 17.6842 16.2453 18.0368C16.2642 18.0522 16.2829 18.0676 16.3016 18.0832V13.1328Z" fill="white"/>
</svg>
